<?xml version="1.0" encoding="utf-8"?>
<!-- Generator: Adobe Illustrator 23.0.0, SVG Export Plug-In . SVG Version: 6.00 Build 0)  -->
<svg version="1.1" id="Layer_1" xmlns="http://www.w3.org/2000/svg" xmlns:xlink="http://www.w3.org/1999/xlink" x="0px" y="0px"
	 viewBox="0 0 89.8 89.8" style="enable-background:new 0 0 89.8 89.8;" xml:space="preserve">
<style type="text/css">
	.st0{clip-path:url(#SVGID_2_);}
	.st1{fill:url(#XMLID_2_);}
	.st2{fill:#FFFFFF;}
</style>
<g>
	<defs>
		<circle id="SVGID_1_" cx="44.9" cy="44.9" r="44.9"/>
	</defs>
	<clipPath id="SVGID_2_">
		<use xlink:href="#SVGID_1_"  style="overflow:visible;"/>
	</clipPath>
	<g class="st0">
		<radialGradient id="XMLID_2_" cx="-16.4857" cy="130.5396" r="209.976" gradientUnits="userSpaceOnUse">
			<stop  offset="0" style="stop-color:#F9ED41"/>
			<stop  offset="0.2412" style="stop-color:#FF833D"/>
			<stop  offset="0.401" style="stop-color:#EE5568"/>
			<stop  offset="0.4888" style="stop-color:#E7407B"/>
			<stop  offset="1" style="stop-color:#0028FF"/>
		</radialGradient>
		<path id="XMLID_348_" class="st1" d="M55.6,95.2H34.2c-21.9,0-39.7-17.8-39.7-39.7V34.2c0-21.9,17.8-39.7,39.7-39.7h21.4
			c21.9,0,39.7,17.8,39.7,39.7v21.4C95.2,77.5,77.5,95.2,55.6,95.2z"/>
		<g id="XMLID_340_">
			<path id="XMLID_345_" class="st2" d="M55.9,73.3h-22c-9.6,0-17.4-7.8-17.4-17.4v-22c0-9.6,7.8-17.4,17.4-17.4h22
				c9.6,0,17.4,7.8,17.4,17.4v22C73.3,65.5,65.5,73.3,55.9,73.3z M33.9,20.7c-7.2,0-13.1,5.9-13.1,13.1v22c0,7.2,5.9,13.1,13.1,13.1
				h22C63.1,69,69,63.1,69,55.9v-22c0-7.2-5.9-13.1-13.1-13.1H33.9z"/>
			<path id="XMLID_342_" class="st2" d="M44.9,59.2c-7.9,0-14.4-6.4-14.4-14.4c0-7.9,6.4-14.4,14.4-14.4c7.9,0,14.4,6.4,14.4,14.4
				C59.2,52.8,52.8,59.2,44.9,59.2z M44.9,34.9c-5.5,0-10,4.5-10,10c0,5.5,4.5,10,10,10c5.5,0,10-4.5,10-10
				C54.9,39.4,50.4,34.9,44.9,34.9z"/>
			<path id="XMLID_341_" class="st2" d="M64.6,28.9c0,2.1-1.7,3.7-3.7,3.7c-2.1,0-3.7-1.7-3.7-3.7c0-2.1,1.7-3.7,3.7-3.7
				C62.9,25.2,64.6,26.9,64.6,28.9z"/>
		</g>
	</g>
</g>
</svg>
