<?xml version="1.0" encoding="utf-8"?>
<!-- Generator: Adobe Illustrator 22.1.0, SVG Export Plug-In . SVG Version: 6.00 Build 0)  -->
<svg version="1.1" id="Camada_1" xmlns="http://www.w3.org/2000/svg" xmlns:xlink="http://www.w3.org/1999/xlink" x="0px" y="0px"
	 viewBox="0 0 1670 770" style="enable-background:new 0 0 1670 770;" xml:space="preserve">
<style type="text/css">
	.st0{fill:#00DC00;}
	.st1{fill:#FFFFFF;}
	.st2{fill:none;}
	.st3{fill:#ABABAB;}
	.st4{fill:#508D5A;}
	.st5{fill:#777777;}
	.st6{fill:#75336D;}
</style>
<rect class="st1" width="1670" height="770"/>
<g>
	<g>
		<g>
			<path class="st0" d="M118.5,317.2l34.9-11.6l11.6-34.9l11.6,34.9l34.9,11.6l-34.9,11.6L165,363.7l-11.6-34.9L118.5,317.2z"/>
		</g>
		<g>
			<path class="st0" d="M150.5,474.1l31.6-10.5l10.5-31.6l10.5,31.6l31.6,10.5l-31.6,10.5l-10.5,31.6l-10.5-31.6L150.5,474.1z"/>
		</g>
		<g>
			<path class="st0" d="M397.5,238.7l38.2-12.7l12.7-38.2l12.7,38.2l38.2,12.7l-38.2,12.7l-12.7,38.2l-12.7-38.2L397.5,238.7z"/>
		</g>
		<g>
			<path class="st0" d="M656.2,421.8l38.2-12.7l12.7-38.2l12.7,38.2l38.2,12.7l-38.2,12.7l-12.7,38.2l-12.7-38.2L656.2,421.8z"/>
		</g>
		<g>
			<path class="st0" d="M726,558.4l58.9-19.6l19.6-58.9l19.6,58.9l58.9,19.6L824.1,578l-19.6,58.9L784.8,578L726,558.4z"/>
		</g>
		<circle class="st0" cx="319" cy="525.5" r="63.9"/>
		<path class="st0" d="M570.7,421.6c0-24.5-19.9-44.4-44.4-44.4c-0.2,0-0.3,0-0.5,0H418.9c-7.8,0-14.2,6.2-14.2,13.9
			c0,7.7,6.4,13.9,14.2,13.9h66.2h41.2h2.2v0c9.2,0,16.7,7.5,16.7,16.7s-7.5,16.7-16.7,16.7h-24.2c-6.4,0-11.7,4.3-13.3,10.2
			c-0.3,1.2-0.6,2.4-0.6,3.7c0,7.6,6.2,13.8,13.8,13.9v0h23.1V466C551.4,465.4,570.7,445.8,570.7,421.6z"/>
		<path class="st0" d="M433.3,411c-5.8,6.5-14.2,10.5-23.5,10.5c-17.5,0-31.6-14.2-31.6-31.6s14.2-31.6,31.6-31.6
			c10.3,0,19.4,5,25.2,12.6h43.4c-8.4-21.8-24.8-40.3-46-52.6c-0.1-30.1-28-54.4-62.5-54.4c-34.4,0-62.3,24.3-62.5,54.4
			c-30.2,17.7-50.6,47.8-52.2,82.2h-0.1v77.6c14.9-18.9,38-31.1,63.9-31.1c44.9,0,81.4,36.4,81.4,81.4c0,24.3-10.7,46.1-27.6,61
			h78.5c18.5,0,33.4-15,33.4-33.4V411H433.3z M369.9,301.7c-14.6,0-28.6,2.5-41.5,7c8-17.4,24-29.3,42.5-29.3
			c18.7,0,34.9,12.2,42.8,30.1C400.2,304.4,385.4,301.7,369.9,301.7z"/>
		<path class="st0" d="M683.8,528.4h-33.4l-85-264.5l0,0c-22.2-76.3-81.2-130.8-150.5-130.8c-88.3,0-159.9,88.5-159.9,197.7
			c0,9.1,0.6,18,1.5,26.8c5-6.2,10.6-11.9,15.8-18c1-1.1,2.2-2,3.4-2.6c5.4-101,65.4-180.6,138.6-180.6c51,0,95.5,38.6,119.7,96.1
			l14.1,46.1l22.8,74.9l47.2,155h-24.6c-10.4,0-18.9,8.5-18.9,18.9s8.5,18.9,18.9,18.9h90.1c10.4,0,18.9-8.5,18.9-18.9
			S694.3,528.4,683.8,528.4z"/>
	</g>
	<g>
		<g>
			<path class="st4" d="M776.5,188c0,2.3-0.8,3.4-2.4,3.4c-2.5,0-17.9-0.5-46.5-1.6c-0.8,26.7-1.2,48.1-1.2,64.2
				c0,10.1,0.4,25.2,1.1,45.3c0.7,20.1,1.1,35.2,1.1,45.3c0,1.8-1.3,2.8-3.8,2.8c-1.6,0-4-0.1-7.2-0.4c-3.2-0.3-5.7-0.4-7.4-0.4
				c-1.6,0-4,0.1-7.2,0.4c-3.2,0.3-5.6,0.4-7.2,0.4c-2.2,0-3.3-1.1-3.3-3.3c0-10,0.4-25,1.2-45c0.8-20,1.2-35,1.2-45.1
				c0-15.6-0.5-37-1.4-64.2c-22.6,1.4-39.1,2.1-49.6,2.1c-1.1,0-1.6-0.4-1.6-1.3c0-1.6,0.4-3.8,1.2-6.8c1-3.9,1.5-6.1,1.7-6.8
				c0.2-3.1,0.8-7.3,1.8-12.7c0.4-1.1,1.2-1.7,2.2-1.7l1.6,0.1c31,1.8,51.4,2.8,61.3,2.8c8.7,0,23.1-0.7,42.9-2
				c13.6-0.9,19.2-1.3,16.9-1.3c2.3,0,3.5,0.8,3.8,2.4c-0.2-1-0.3,3.3-0.3,12.7c0,1.1,0.1,2.9,0.4,5.3
				C776.4,185,776.5,186.8,776.5,188z"/>
			<path class="st4" d="M913.7,228.3c0,6.4-0.3,16-0.8,28.9c-0.5,12.9-0.8,22.6-0.8,29.1c0,6.4,0.2,15.9,0.6,28.7
				c0.4,12.7,0.6,22.3,0.6,28.7c0,1.8-0.8,2.9-2.5,3.4c-0.7,0.2-9.6,0.3-26.6,0.3c-1.1,0-1.7-3.3-1.9-9.8c-0.2-6.6-0.7-9.8-1.5-9.8
				c-0.4,0-1.1,0.4-2,1.2c-14.6,12.7-29.1,19-43.3,19c-19.3,0-32.1-7-38.3-21c-3.9-8.7-5.8-24.2-5.8-46.7c0-20.3,1.6-37.5,4.9-51.6
				c0.8-3.4,2.2-5.1,4.3-5.1c2.5,0,6.3,0,11.4,0.1c5.1,0.1,8.9,0.1,11.4,0.1c1.7,0,2.6,1,2.6,2.9c0,3.4-0.6,9.1-1.7,17.1
				c-1.2,8.5-1.9,14.5-2,18c-0.3,5.3-0.4,11-0.4,17.3c0,15.3,1.1,25.6,3.3,30.8c3.8,9.5,12.1,14.2,25.1,14.2c5.5,0,12-2.7,19.6-8.1
				c8-5.7,12.1-11.2,12.3-16.4c0.4-6.6,0.7-29.7,0.7-69.3c0-4.3,1.8-6.4,5.4-6.4h21.7C912.4,223.7,913.7,225.2,913.7,228.3z"/>
			<path class="st4" d="M1066.6,164.2c0,11.3-0.5,28.2-1.5,50.7c-1,22.5-1.5,39.4-1.5,50.6c0,34.6,0.7,60.7,2.2,78.5l0.1,1.7
				c0.1,0.9-1.1,1.4-3.5,1.7c-1.7,0.2-4,0.2-7.1,0c-3.7-0.3-5.4-0.4-5.1-0.4c-1.3,0-3.2,0.1-5.8,0.4c-2.5,0.3-4.5,0.4-5.8,0.4
				c-1.2,0-1.9-3-2.2-9.1c-0.2-6.1-0.5-9.2-1-9.3c-0.5,0.3-1.2,0.8-2,1.7c-12,13-25.8,19.4-41.3,19.4c-17.7,0-32.2-6.7-43.6-20.2
				c-10.8-12.7-16.1-28-16.1-45.9c0-18.6,5.4-34.3,16.3-47c11.4-13.3,26.2-20,44.5-20c11,0,20.7,3.2,28.9,9.7
				c3.8,3.2,7.5,6.5,11.2,9.8c0.7-0.3,1.1-0.9,1.1-1.8v-42.5c0-2.9-0.1-7.3-0.4-13.1c-0.3-5.9-0.4-10.3-0.4-13.3
				c0-2.1,0.7-3.2,2.1-3.2c3.2,0,8.1-0.3,14.4-0.9c6.4-0.6,11.2-0.9,14.3-0.9C1065.9,161.5,1066.6,162.4,1066.6,164.2z
				 M1033.8,283.7c0-10.5-3.2-19.7-9.7-27.7c-6.9-8.5-15.5-12.7-25.7-12.7c-10.8,0-19.6,4.2-26.6,12.6c-6.7,7.9-10,17.3-10,28.4
				c0,10.5,3.5,19.6,10.4,27.4c7.1,8.2,15.8,12.3,26.3,12.3c10.5,0,19.2-4.2,26-12.5C1030.6,303.7,1033.8,294.5,1033.8,283.7z"/>
			<path class="st4" d="M1208.9,283.4c0,18.3-6,33.9-18,46.9c-12.3,13.4-27.4,20.1-45.5,20.1c-18.2,0-33.4-6.6-45.7-20
				c-12-12.9-18-28.4-18-46.7c0-18.3,6-33.9,18-46.7c12.3-13.1,27.6-19.7,45.7-19.7c18,0,33.2,6.6,45.4,19.7
				C1202.9,249.7,1208.9,265.2,1208.9,283.4z M1181.2,283.7c0-10.7-3.3-19.8-9.8-27.3c-6.8-8-15.5-11.9-26-11.9
				c-10.5,0-19.2,3.9-26.1,11.8c-6.6,7.6-9.8,16.8-9.8,27.4c0,10.5,3.3,19.6,10,27.3c7,8.1,15.7,12.2,26,12.2
				c10.4,0,19.1-4.1,26-12.2C1177.9,303.3,1181.2,294.2,1181.2,283.7z"/>
			<path class="st4" d="M1068,547.5c0,1.1-0.8,2.5-2.5,4.5c-17.1,19.8-38.2,29.7-63.4,29.7c-26.3,0-47.3-9.6-63-28.7
				c-14.7-17.9-22.1-40.2-22.1-66.9c0-26.8,7.5-49.2,22.4-67.2c15.9-19.4,37-29.1,63.1-29.1c26.5,0,47,9,61.6,26.9
				c1.4,1.8,2.1,3.4,2.1,4.6c0,1.5-2.3,5.9-7,13.2c-4.6,7.3-7.4,11-8.4,11c-1.1,0-3.8-2.1-8-6.4c-5.2-5.3-10-9.2-14.6-11.8
				c-7.5-4.3-15.8-6.4-24.9-6.4c-17.3,0-30.8,6.6-40.4,19.8c-8.6,11.8-12.9,26.7-12.9,44.6c0,17.9,4.2,32.9,12.7,45
				c9.6,13.6,23.1,20.3,40.3,20.3c8.6,0,16.8-2.1,24.8-6.4c5.3-2.8,10.6-6.8,16-11.9c4.5-4.3,7-6.4,7.5-6.4c0.5,0,3.4,3.5,8.7,10.4
				S1068,546.8,1068,547.5z"/>
			<path class="st4" d="M1115.6,395.7l-0.1,1.7c-1.9,32.6-2.9,60.5-2.9,83.9c0,10.4,0.2,26,0.5,46.8c0.3,20.8,0.5,36.3,0.5,46.7
				c0,2-0.7,3-2.1,3h-25.1c-1.6,0-2.4-1-2.4-3c0-10.3,0.1-25.9,0.3-46.7c0.2-20.8,0.3-36.4,0.3-46.8c0-9.5-0.5-23.6-1.4-42.6
				c-0.9-18.9-1.4-33.1-1.4-42.5c0-1.7,0.9-2.6,2.8-2.6c1.6,0,3.9,0.1,7.1,0.4c3.2,0.3,5.5,0.4,7.1,0.4c1.7,0,4.1-0.1,7.4-0.4
				c3.2-0.3,5.6-0.4,7.2-0.4S1115.6,394.3,1115.6,395.7z"/>
			<path class="st4" d="M1252.7,507.3c0,6.5-2.8,10.8-8.4,13c-3.8,1.4-30.8,4-81.3,7.7c1.1,7.7,5.4,14.3,12.7,19.7
				c7,5.2,14.5,7.7,22.6,7.7c13.8,0,26.5-4.5,38.1-13.4c1.4-1.1,2.8-2.3,4.2-3.4c0.7,0,1.2,0.1,1.4,0.3c0.2,0.2,1.9,3.2,4.9,9.1
				c3.1,5.9,4.6,9.1,4.6,9.5c0,0.5-0.7,1.5-2.1,3c-12.9,13.7-29.4,20.5-49.5,20.5c-20.3,0-36.5-6.1-48.6-18.2
				c-12.1-12.1-18.1-28.3-18.1-48.5c0-18,5.8-33.7,17.3-47.1c12.2-13.9,27.1-20.9,44.8-20.9c16.5,0,30.2,6,41.2,18.1
				C1247.4,476.2,1252.7,490.5,1252.7,507.3z M1221.5,499.3c0-7.3-2.9-13.7-8.6-19.3c-5.7-5.6-12.2-8.4-19.4-8.4
				c-8.1,0-15.2,3.2-21.5,9.7c-6.3,6.5-9.4,13.7-9.4,21.8c0,1.8,1.6,2.8,4.7,2.8c13,0,28.4-1.3,46.5-3.9
				C1219,501.2,1221.5,500.3,1221.5,499.3z"/>
			<path class="st4" d="M1398.7,459c0,0.4-0.1,1.1-0.4,2.4c-3.4,20-5.1,37.3-5.1,51.8c0,0.9,1.1,20.5,3.3,58.9l0.1,1.8
				c0.1,2.5-1.1,3.8-3.5,3.8c-2.4,0-6,0.3-10.9,0.9c-4.9,0.6-8.5,0.9-10.8,0.9c-1.7,0-2.9-3.1-3.8-9.2c-0.9-6.1-1.7-9.2-2.5-9.2
				c-0.5,0-2.9,1.7-7.1,5.1c-5.2,4.2-10,7.4-14.4,9.6c-6.9,3.5-13.8,5.3-20.7,5.3c-17,0-31.3-6.8-42.9-20.3
				c-11-13-16.5-28-16.5-45.3c0-19.4,5.6-35.5,16.7-48.2c11.6-13.2,27-19.8,45.9-19.8c13.4,0,25.1,4.6,35,13.9
				c1.5,1.8,3.8,4.3,7,7.6c0.3,0.3,0.5,0.4,0.8,0.4c0.5,0,1.3-2.8,2.2-8.3c1-5.5,2.2-8.3,3.7-8.3c2.4,0,6.8,0.7,13.3,2
				C1395.1,456.4,1398.7,457.8,1398.7,459z M1365.2,513.9c0-10.8-3.2-20-9.6-27.7c-6.7-8.3-15.4-12.5-25.9-12.5
				c-10.5,0-19.3,4.1-26.3,12.3c-6.7,7.9-10.1,17.2-10.1,27.8c0,10.6,3.4,19.8,10.1,27.6c7,8.1,15.8,12.2,26.3,12.2
				c10.2,0,18.8-4.2,25.7-12.5C1362,533.4,1365.2,524.3,1365.2,513.9z"/>
			<path class="st4" d="M1535.7,575.2c0,1.9-0.9,2.9-2.6,2.9c-2.9,0-7.2,0-12.9-0.1c-5.7-0.1-10-0.1-12.9-0.1
				c-1.6,0-2.4-1.3-2.4-3.8c0-4.3,0.1-10.8,0.4-19.6c0.3-8.7,0.4-15.3,0.4-19.7c0-3.5,0-8.7-0.1-15.7c-0.1-7-0.1-12.2-0.1-15.7
				c0-10-1.4-17-4.3-21.1c-3.5-4.9-10-7.4-19.4-7.4c-4.4,0-10.5,2.5-18.2,7.4c-8.2,5.2-12.3,9.8-12.3,13.8v78.8
				c0,2.2-0.8,3.3-2.5,3.3c-2.8,0-7,0-12.6-0.1c-5.6-0.1-9.8-0.1-12.6-0.1c-1.8,0-2.8-1-2.8-3c0-6.9,0.1-17.3,0.3-31.1
				c0.2-13.8,0.3-24.2,0.3-31.2c0-18.6-2-35.8-5.9-51.6c-0.3-0.8-0.4-1.4-0.4-1.7c0-0.9,0.6-1.5,1.7-1.8c0.6-0.1,5.6-0.9,15-2.4
				c9.4-1.5,14.3-2.3,14.8-2.3c0.5,0,0.9,0.7,1.1,2.1c0.4,5.4,1.4,10.9,3,16.4c4.5-3.6,10.5-8.1,18-13.4c9.2-5.6,18.1-8.4,26.6-8.4
				c16.5,0,27.7,4.8,33.7,14.3c4.5,7,6.7,18.3,6.7,34c0,2.7-0.1,6.9-0.2,12.5c-0.1,5.6-0.2,9.8-0.2,12.6c0,5.9,0.1,14.6,0.3,26.3
				C1535.7,560.5,1535.7,569.3,1535.7,575.2z"/>
		</g>
	</g>
</g>
</svg>
